<?xml version="1.0" standalone="no"?>
<!DOCTYPE svg PUBLIC "-//W3C//DTD SVG 20010904//EN"
 "http://www.w3.org/TR/2001/REC-SVG-20010904/DTD/svg10.dtd">
<svg version="1.0" xmlns="http://www.w3.org/2000/svg"
 width="600.000000pt" height="600.000000pt" viewBox="0 0 600.000000 600.000000"
 preserveAspectRatio="xMidYMid meet">
<metadata>
Created by potrace 1.11, written by Peter Selinger 2001-2013
</metadata>
<g transform="translate(0.000000,600.000000) scale(0.100000,-0.100000)"
fill="#000000" stroke="none">
<path d="M172 5883 c-18 -9 -43 -30 -55 -47 l-22 -31 -3 -1793 c-2 -1988 -7
-1835 62 -1885 l31 -22 805 0 805 0 31 22 c68 48 64 -9 64 1032 l0 941 1941 0
c2150 0 1982 -5 2032 64 l22 31 0 805 0 805 -22 31 c-13 17 -38 39 -57 48 -31
15 -270 16 -2818 16 -2543 0 -2786 -2 -2816 -17z"/>
<path d="M2171 3882 c-19 -9 -44 -30 -55 -45 l-21 -28 -3 -1797 c-2 -1696 -1
-1799 15 -1831 10 -19 31 -44 46 -55 28 -21 35 -21 837 -21 802 0 809 0 837
21 15 11 36 36 45 55 17 32 18 99 18 977 l0 942 943 0 c877 0 944 1 976 18 19
9 44 30 55 45 21 28 21 35 21 837 0 802 0 809 -21 837 -11 15 -36 36 -55 45
-32 17 -139 18 -1819 18 -1680 0 -1787 -1 -1819 -18z"/>
<path d="M171 1882 c-19 -9 -44 -30 -55 -45 -21 -28 -21 -35 -21 -837 0 -802
0 -809 21 -837 11 -15 36 -36 55 -45 31 -17 91 -18 819 -18 728 0 788 1 819
18 19 9 44 30 55 45 21 28 21 35 21 837 0 802 0 809 -21 837 -11 15 -36 36
-55 45 -31 17 -91 18 -819 18 -728 0 -788 -1 -819 -18z"/>
<path d="M4172 1883 c-18 -9 -43 -30 -55 -47 l-22 -31 0 -805 0 -805 22 -31
c48 -67 8 -64 873 -64 865 0 825 -3 873 64 l22 31 0 805 0 805 -22 31 c-48 67
-8 64 -875 64 -701 0 -786 -2 -816 -17z"/>
</g>
</svg>
